<svg width="131" height="40" viewBox="0 0 131 40" fill="none" xmlns="http://www.w3.org/2000/svg">
<path d="M0.924133 19.6155C0.924133 30.2434 9.70367 39.0229 20.3315 39.0229C30.9594 39.0229 39.7389 30.2434 39.7389 19.6155C39.7389 8.98765 30.9594 0.323631 20.3315 0.323631C9.70367 0.323631 0.924133 8.98765 0.924133 19.6155ZM27.4938 28.6261C22.9885 25.8536 17.2125 25.1605 10.5123 26.6623C8.89503 26.8933 8.66399 24.5829 10.0502 24.3519C17.4435 22.619 23.6816 23.4277 28.7645 26.5467C30.0352 27.3554 28.7645 29.3192 27.4938 28.6261ZM29.4576 23.4277C24.2592 20.1931 16.2883 19.269 10.1658 21.1173C8.20191 21.6949 7.50879 18.6914 9.35711 18.2293C16.4039 16.1499 25.0679 17.1896 31.0749 20.8862C32.6922 21.9259 31.0749 24.4674 29.4576 23.4277ZM9.24159 15.2257C7.27775 15.9189 6.00703 12.5688 8.20191 11.7601C15.0176 9.68077 26.5696 10.0273 33.7319 14.3016C35.6957 15.3413 33.8474 18.5758 31.768 17.4206C25.53 13.724 15.1331 13.3774 9.24159 15.2257ZM53.0238 25.7381C51.0599 25.7381 49.2116 25.045 47.5943 23.4277C47.4788 23.4277 47.4788 23.5432 47.4788 23.5432L45.6305 25.7381C45.515 25.8536 45.515 25.9691 45.6305 26.0847C47.7098 27.933 50.2513 28.8571 53.0238 28.8571C56.9515 28.8571 59.3774 26.6623 59.3774 23.4277C59.3774 20.6552 57.6446 19.1534 53.6014 18.1138C50.2513 17.3051 49.6737 16.7275 49.6737 15.5723C49.6737 14.4171 50.8289 13.724 52.3307 13.724C53.8324 13.724 55.2187 14.3016 56.8359 15.4568C56.8359 15.4568 56.9515 15.5723 57.067 15.5723C57.1825 15.5723 57.1825 15.4568 57.1825 15.4568L58.7998 13.1464C58.9153 13.0309 58.9153 13.0309 58.7998 12.9153C56.9515 11.4136 54.7566 10.6049 52.3307 10.6049C48.7495 10.6049 46.2081 12.7998 46.2081 15.9189C46.2081 19.269 48.5185 20.3086 52.2151 21.2328C55.4497 21.9259 55.9118 22.619 55.9118 23.7742C55.9118 25.045 54.7566 25.7381 53.0238 25.7381ZM63.9982 16.843V15.3413C63.9982 15.2257 63.8827 15.1102 63.7672 15.1102H60.7636C60.6481 15.1102 60.5326 15.2257 60.5326 15.3413V32.3228C60.5326 32.4383 60.6481 32.5538 60.7636 32.5538H63.7672C63.8827 32.5538 63.9982 32.4383 63.9982 32.3228V27.0088C65.1534 28.2795 66.4241 28.8571 68.1569 28.8571C71.276 28.8571 74.395 26.4312 74.395 21.8104C74.395 17.1896 71.276 14.8792 68.1569 14.8792C66.4241 14.8792 65.1534 15.4568 63.9982 16.843ZM67.4638 25.8536C65.3844 25.8536 63.8827 24.1208 63.8827 21.8104C63.8827 19.5 65.3844 17.8827 67.4638 17.8827C69.5432 17.8827 70.9294 19.5 70.9294 21.8104C70.9294 24.1208 69.5432 25.8536 67.4638 25.8536ZM75.3192 21.9259C75.3192 25.8536 78.4382 28.8571 82.4814 28.8571C86.5247 28.8571 89.6437 25.7381 89.6437 21.8104C89.6437 17.8827 86.6402 14.8792 82.597 14.8792C78.5538 14.8792 75.3192 17.9982 75.3192 21.9259ZM78.7848 21.8104C78.7848 19.5 80.2866 17.8827 82.4814 17.8827C84.6763 17.8827 86.2936 19.6155 86.2936 21.9259C86.2936 24.2363 84.7919 25.8536 82.597 25.8536C80.4021 25.8536 78.7848 24.1208 78.7848 21.8104ZM94.9576 15.1102V11.7601C94.9576 11.6446 94.9576 11.5291 94.8421 11.5291H91.8386C91.7231 11.5291 91.6076 11.6446 91.6076 11.7601V15.1102H90.1058C89.9903 15.1102 89.8747 15.2257 89.8747 15.3413V17.8827C89.8747 17.9982 89.9903 18.1138 90.1058 18.1138H91.6076V24.8139C91.6076 27.4709 92.8783 28.8571 95.5352 28.8571C96.5749 28.8571 97.6146 28.6261 98.4232 28.164C98.5388 28.164 98.5388 28.0485 98.5388 27.933V25.5071C98.5388 25.3915 98.5388 25.276 98.4232 25.276H98.1922C97.6146 25.6226 96.9215 25.7381 96.3439 25.7381C95.4197 25.7381 94.9576 25.276 94.9576 24.3519V18.1138H98.4232C98.5388 18.1138 98.6543 17.9982 98.6543 17.8827V15.3413C98.6543 15.2257 98.5388 15.1102 98.4232 15.1102H94.9576ZM109.86 14.7637C109.86 13.4929 110.322 13.0309 111.362 13.0309C111.939 13.0309 112.517 13.0309 113.094 13.2619H113.21C113.21 13.2619 113.325 13.1464 113.325 13.0309V10.6049C113.325 10.4894 113.325 10.3739 113.21 10.3739C112.632 10.1429 111.824 10.0273 110.668 10.0273C107.896 10.0273 106.51 11.6446 106.51 14.5326V15.1102H105.008C104.892 15.1102 104.777 15.2257 104.777 15.3413V17.8827C104.777 17.9982 104.892 18.1138 105.008 18.1138H106.51V28.3951C106.51 28.5106 106.625 28.6261 106.741 28.6261H109.744C109.86 28.6261 109.86 28.5106 109.86 28.3951V18.1138H112.748L117.022 28.3951C116.56 29.4347 116.098 29.6658 115.405 29.6658C114.827 29.6658 114.25 29.5503 113.672 29.2037H113.556L113.441 29.3192L112.401 31.5141C112.401 31.6296 112.401 31.8607 112.517 31.8607C113.556 32.4383 114.481 32.6693 115.636 32.6693C117.831 32.6693 119.101 31.6296 120.141 28.8571L125.339 15.4568V15.2257C125.339 15.1102 125.224 15.1102 125.108 15.1102H121.989C121.874 15.1102 121.874 15.2257 121.874 15.3413L118.639 24.3519L115.174 15.3413C115.174 15.2257 115.058 15.1102 114.943 15.1102H109.86V14.7637ZM100.272 15.1102C100.156 15.1102 100.041 15.2257 100.041 15.3413V28.3951C100.041 28.5106 100.156 28.6261 100.272 28.6261H103.275C103.391 28.6261 103.391 28.5106 103.391 28.3951V15.3413C103.391 15.2257 103.391 15.1102 103.275 15.1102H100.272ZM99.5784 11.2981C99.5784 12.4533 100.618 13.4929 101.773 13.4929C102.929 13.4929 103.853 12.4533 103.853 11.2981C103.853 10.1429 102.929 9.21869 101.773 9.21869C100.618 9.21869 99.5784 10.1429 99.5784 11.2981ZM127.881 19.269C129.036 19.269 130.076 18.3448 130.076 17.1896C130.076 16.0344 129.036 15.1102 127.881 15.1102C126.726 15.1102 125.802 16.0344 125.802 17.1896C125.802 18.3448 126.726 19.269 127.881 19.269ZM127.881 15.3413C128.921 15.3413 129.845 16.1499 129.845 17.1896C129.845 18.2293 128.921 19.0379 127.881 19.0379C126.841 19.0379 126.033 18.2293 126.033 17.1896C126.033 16.1499 126.841 15.3413 127.881 15.3413ZM128.343 17.4206C128.69 17.3051 128.921 17.0741 128.921 16.7275C128.921 16.2654 128.459 16.0344 127.996 16.0344H127.072V18.2293H127.534V17.5362H127.996L128.459 18.2293H129.036L128.343 17.4206ZM127.996 16.381C128.227 16.381 128.459 16.4965 128.459 16.7275C128.459 16.9586 128.227 17.0741 127.996 17.0741H127.534V16.381H127.996Z" fill="white"/>
</svg>
