<svg width="20" height="22" viewBox="0 0 20 22" fill="none" xmlns="http://www.w3.org/2000/svg">
<path d="M11.5 0.608757C11.0439 0.345452 10.5266 0.206833 10 0.206833C9.47339 0.206833 8.95606 0.345452 8.5 0.608757L1 4.93876C0.695969 5.11429 0.443498 5.36676 0.267962 5.67079C0.0924258 5.97481 8.91844e-06 6.31969 0 6.67076V20.0938C0 20.359 0.105357 20.6133 0.292893 20.8009C0.48043 20.9884 0.734784 21.0938 1 21.0938H7C7.26522 21.0938 7.51957 20.9884 7.70711 20.8009C7.89464 20.6133 8 20.359 8 20.0938V14.0938H12V20.0938C12 20.359 12.1054 20.6133 12.2929 20.8009C12.4804 20.9884 12.7348 21.0938 13 21.0938H19C19.2652 21.0938 19.5196 20.9884 19.7071 20.8009C19.8946 20.6133 20 20.359 20 20.0938V6.67076C20 6.31969 19.9076 5.97481 19.732 5.67079C19.5565 5.36676 19.304 5.11429 19 4.93876L11.5 0.608757Z" fill="white"/>
</svg>
