<svg width="24" height="25" viewBox="0 0 24 25" fill="none" xmlns="http://www.w3.org/2000/svg">
<rect y="0.09375" width="24" height="24" rx="2" fill="url(#paint0_linear_1_249)"/>
<g clip-path="url(#clip0_1_249)">
<path d="M17.793 9.25875C17.6634 8.6142 17.3404 8.02446 16.8672 7.56809C16.3939 7.11172 15.7929 6.81039 15.144 6.70425C14.6565 6.62654 14.1577 6.6626 13.6864 6.80962C13.2152 6.95664 12.7843 7.21063 12.4275 7.55175C12.3114 7.65976 12.1586 7.71981 12 7.71981C11.8414 7.71981 11.6887 7.65976 11.5725 7.55175C10.9801 6.97873 10.1896 6.65605 9.36544 6.65079C8.54125 6.64553 7.74673 6.95809 7.14704 7.5235C6.54735 8.08891 6.18861 8.86368 6.1454 9.68676C6.10219 10.5098 6.37783 11.3179 6.91503 11.943L11.352 17.2305C11.4314 17.325 11.5306 17.4009 11.6424 17.453C11.7543 17.5052 11.8762 17.5322 11.9997 17.5322C12.1231 17.5322 12.245 17.5052 12.3569 17.453C12.4687 17.4009 12.5679 17.325 12.6473 17.2305L17.0843 11.943C17.398 11.5788 17.6249 11.148 17.7477 10.6833C17.8705 10.2185 17.886 9.73189 17.793 9.26025V9.25875Z" fill="white"/>
</g>
<defs>
<linearGradient id="paint0_linear_1_249" x1="0" y1="0.09375" x2="24" y2="24.0938" gradientUnits="userSpaceOnUse">
<stop stop-color="#450AF5"/>
<stop offset="1" stop-color="#C4EFD9"/>
</linearGradient>
<clipPath id="clip0_1_249">
<rect width="12" height="12" fill="white" transform="translate(6 6.09375)"/>
</clipPath>
</defs>
</svg>
